<?xml version="1.0" encoding="utf-8"?>
<!-- Generator: Adobe Illustrator 24.3.0, SVG Export Plug-In . SVG Version: 6.00 Build 0)  -->
<svg version="1.1" id="Layer_1" xmlns="http://www.w3.org/2000/svg" xmlns:xlink="http://www.w3.org/1999/xlink" x="0px" y="0px"
	 viewBox="0 0 1000 1000" style="enable-background:new 0 0 1000 1000;" xml:space="preserve">
<style type="text/css">
	.st0{fill:#002451;}
	.st1{fill:url(#SVGID_1_);}
	.st2{fill:url(#SVGID_2_);}
	.st3{fill:#76D7E7;}
	.st4{opacity:0.5;fill:url(#SVGID_3_);}
	.st5{opacity:0.5;fill:url(#SVGID_4_);}
	.st6{fill:url(#SVGID_5_);}
	.st7{fill:url(#SVGID_6_);}
	.st8{opacity:0.5;fill:url(#SVGID_7_);}
	.st9{opacity:0.5;fill:url(#SVGID_8_);}
	.st10{fill:url(#SVGID_9_);}
	.st11{fill:url(#SVGID_10_);}
	.st12{opacity:0.5;fill:url(#SVGID_11_);}
	.st13{opacity:0.5;fill:url(#SVGID_12_);}
	.st14{fill:url(#SVGID_13_);}
	.st15{fill:url(#SVGID_14_);}
	.st16{fill:#FFFFFF;}
	.st17{opacity:0.5;fill:url(#SVGID_15_);}
	.st18{opacity:0.5;fill:url(#SVGID_16_);}
	.st19{fill:url(#SVGID_17_);}
	.st20{fill:url(#SVGID_18_);}
	.st21{opacity:0.5;fill:url(#SVGID_19_);}
	.st22{opacity:0.5;fill:url(#SVGID_20_);}
	.st23{fill:url(#SVGID_21_);}
	.st24{fill:url(#SVGID_22_);}
	.st25{opacity:0.5;fill:url(#SVGID_23_);}
	.st26{opacity:0.5;fill:url(#SVGID_24_);}
</style>
<g>
	
		<linearGradient id="SVGID_1_" gradientUnits="userSpaceOnUse" x1="903.95" y1="-2757.4414" x2="1066.0341" y2="-2503.2935" gradientTransform="matrix(0.7071 0.7071 -0.7071 0.7071 -1979.6394 1584.4648)">
		<stop  offset="0" style="stop-color:#2E3192"/>
		<stop  offset="1" style="stop-color:#06E1EC"/>
	</linearGradient>
	<path class="st1" d="M461.2,407.5c-11.8-55.3,24.5-118.7,78-141.8c106.7-48.8,225.7,40.9,214.4,156.7c-4.9,54.4-40,107.4-91.9,127
		c-37.9,14.4-79.3,11.5-117.3,5.1c-53-7.7-129.1-25.4-176.6,4.9c32.9-43.7,103-47.8,153.4-49c59.5-0.4,129.4,7.6,159.6-54.9
		c19.1-36.3,14.5-83-11.8-114.7c-36.6-46.8-108.6-54.3-156.8-17.1C485.4,343.5,467.6,373.8,461.2,407.5L461.2,407.5z"/>
	
		<linearGradient id="SVGID_2_" gradientUnits="userSpaceOnUse" x1="880.4985" y1="-2543.8145" x2="1126.0269" y2="-2132.9639" gradientTransform="matrix(0.7071 0.7071 -0.7071 0.7071 -1979.6394 1584.4648)">
		<stop  offset="0" style="stop-color:#2E3192"/>
		<stop  offset="1" style="stop-color:#06E1EC"/>
	</linearGradient>
	<path class="st2" d="M536,589.3c12.5,48.8-11.4,102.7-52.3,131.5c-44,32.8-106.4,36.1-155,11c-80.7-41-109.4-147.6-55.4-221.3
		c28.8-40.9,82.8-64.8,131.6-52.2c-45.9,11.7-85.5,44.7-98.7,90.2c-14.6,49.6,6.1,104,51.3,129.7c36.1,20.8,82.4,18.8,117.8-3.1
		C506,656,526.7,624.7,536,589.3L536,589.3z"/>
	<path class="st3" d="M356.2,618.8c36-43.1,101.6-50.6,151-27.9c-24.7,11-49.8,13.5-75.2,17.9C408.6,612.2,380.4,618,356.2,618.8
		L356.2,618.8z"/>
	<path class="st3" d="M419.8,496.6c24.7-63.5,107.7-58.3,162.8-57.6c10.1-0.2,19.9-0.1,29.7-1.8c19.8-4.4,35.4-19.4,43.8-39.6
		c10.4,31.8-15.1,67.5-47.4,74.6C545.7,490.4,477.4,460.4,419.8,496.6L419.8,496.6z"/>
	<linearGradient id="SVGID_3_" gradientUnits="userSpaceOnUse" x1="746.644" y1="449.2448" x2="547.6697" y2="336.3515">
		<stop  offset="0" style="stop-color:#2B3990"/>
		<stop  offset="1" style="stop-color:#2B3990;stop-opacity:0"/>
	</linearGradient>
	<path class="st4" d="M676.1,477.9c100.7-72.8,44.3-229.7-79.9-226.2c-19,0.5-38.3,4.8-57.3,13.5c-53.5,23.1-89.8,86.5-78,141.8
		c6.4-33.7,24.2-64,51-83.8c48.1-37.2,120.2-29.8,156.8,17.1c26.3,31.7,31,78.3,11.8,114.7c-15.2,31.4-40.4,45-69.3,50.8l-0.2,0.7
		C611,506.5,644.1,501.1,676.1,477.9z"/>
	<linearGradient id="SVGID_4_" gradientUnits="userSpaceOnUse" x1="324.7599" y1="640.4504" x2="533.3909" y2="671">
		<stop  offset="0" style="stop-color:#2B3990"/>
		<stop  offset="1" style="stop-color:#2B3990;stop-opacity:0"/>
	</linearGradient>
	<path class="st5" d="M536.1,589.3c-9.3,35.5-30,66.8-60.8,85.7c-6,3.7-12.4,6.8-18.9,9.4c-31.9,12.4-68.9,10.9-98.8-6.3
		c-40.9-23.2-61.8-70.1-54.5-115.5c-11,63.1,20.2,130.9,80.8,161.6c7,3.6,14.3,6.6,21.8,9.1c26.4,8.5,55.5,4.3,77.8-12.2
		c0.1-0.1,0.2-0.2,0.3-0.3c18.4-12.9,33.3-31,43-51.3C538.8,644.5,542.9,616.1,536.1,589.3z"/>
</g>
</svg>
